<svg width="671" height="754" viewBox="0 0 671 754" fill="none" xmlns="http://www.w3.org/2000/svg">
  <!-- Crown/roof with shopping cart -->
  <path d="M200 150 L280 100 L360 100 L470 150 L420 200 L380 180 L350 190 L320 180 L290 190 L250 180 L220 200 Z" fill="#D4941E"/>
  
  <!-- Shopping cart icon integrated into crown -->
  <rect x="310" y="140" width="50" height="30" rx="5" fill="none" stroke="#D4941E" stroke-width="3"/>
  <circle cx="320" cy="185" r="4" fill="#D4941E"/>
  <circle cx="350" cy="185" r="4" fill="#D4941E"/>
  <path d="M300 150 L310 150 L315 170 L355 170" fill="none" stroke="#D4941E" stroke-width="3"/>
  
  <!-- Blue building structure -->
  <path d="M220 200 L470 200 L470 470 L400 470 L400 320 L270 320 L270 470 L220 470 Z" fill="#1B4B82"/>
  
  <!-- Door/entrance -->
  <path d="M270 320 L400 320 L400 470 L270 470 Z" fill="#FFFFFF"/>
  
  <!-- Text "Rassooq" -->
  <text x="345" y="550" text-anchor="middle" font-family="Arial, sans-serif" font-size="80" font-weight="bold" fill="#1B4B82">Rassooq</text>
  
  <!-- Arabic text "راس السوق" -->
  <text x="345" y="620" text-anchor="middle" font-family="Arial, sans-serif" font-size="40" fill="#1B4B82">راس السوق</text>
</svg>


